<?xml version="1.0" encoding="utf-8"?>
<!-- Generator: Adobe Illustrator 27.5.0, SVG Export Plug-In . SVG Version: 6.00 Build 0)  -->
<svg version="1.1" xmlns="http://www.w3.org/2000/svg" xmlns:xlink="http://www.w3.org/1999/xlink" x="0px" y="0px"
	 viewBox="0 0 750 500" style="enable-background:new 0 0 750 500;" xml:space="preserve">
<g id="BACKGROUND">
	<rect style="fill:#FFFFFF;" width="750" height="500"/>
</g>
<g id="OBJECTS">
	<g>
		<g>
			<g>
				<path style="opacity:0.21;fill:#D2DAF1;" d="M194.335,64.109c-9.151,0.727-18.163,2.047-26.903,4.598
					c-6.359,1.856-12.379,4.338-17.551,8.181c-8.46,6.287-11.799,14.269-10.167,23.9c0.977,5.758,3.468,11.033,6.653,16.066
					c5.613,8.864,12.957,16.558,20.956,23.798c0.626,0.57,1.239,1.15,2.147,1.995c-0.854,0.157-1.275,0.268-1.708,0.31
					c-12.093,1.189-23.83,3.647-35.116,7.664c-21.831,7.768-39.448,20.103-52.183,37.636c-11.643,16.04-17.295,33.779-18.648,52.635
					c-0.778,10.867-0.164,21.713,1.809,32.48c2.592,14.13,7.048,27.801,13.144,41.063c9.525,20.719,22.387,39.723,37.982,57.315
					c10.036,11.322,21.071,21.84,33.04,31.603c7.783,6.353,15.164,13.612,24.378,17.951c49.121,23.135,451.975,10.415,465.504-0.235
					c4.471-3.519,8.499-7.623,12.347-11.73c22.718-24.266,32.495-52.156,29.553-83.473c-1.304-13.91-5.23-27.308-10.993-40.292
					c-7.718-17.381-18.352-33.315-30.997-48.233c-15.818-18.654-35.261-36.598-60.609-54.705
					c-31.261-22.339-65.393-40.639-101.807-55.651c-11.502-4.744-23.259-9.016-34.977-13.338
					c-13.048-4.808-26.07-9.693-39.304-14.075c-48.351-16.007-97.784-28.456-149.225-33.977c-9.685-1.038-19.448-1.554-29.19-2.05
					c-3.104-0.162-6.208-0.231-9.312-0.231C206.881,63.312,200.605,63.612,194.335,64.109"/>
				
					<ellipse transform="matrix(0.6518 -0.7583 0.7583 0.6518 50.0589 474.2426)" style="opacity:0.21;fill:#D2DAF1;" cx="541.531" cy="182.602" rx="94.243" ry="192.217"/>
			</g>
			<g>
				<g>
					<path style="fill:#FFE195;" d="M688.543,339.53c2.207,0.336,4.513-0.587,5.847-2.562c1.845-2.731,1.125-6.441-1.606-8.286
						l-30.345-20.49c-2.732-1.845-6.442-1.125-8.286,1.607c-1.845,2.732-1.126,6.441,1.606,8.286l30.345,20.49
						C686.861,339.087,687.695,339.402,688.543,339.53z"/>
					<path style="fill:#FFE195;" d="M592,83.495c-2.273-1.775-2.983-4.988-1.542-7.591c1.597-2.884,5.228-3.928,8.112-2.331
						l32.034,17.733c2.88,1.596,3.928,5.228,2.331,8.112c-1.597,2.884-5.229,3.928-8.112,2.331L592.79,84.016
						C592.509,83.861,592.246,83.687,592,83.495z"/>
					<path style="fill:#E8ACB6;" d="M523.021,154.063c-5.762,1.165-11.985-0.323-16.667-4.563l8.012-8.848
						c2.946,2.668,7.516,2.44,10.185-0.504c1.292-1.427,1.952-3.273,1.857-5.197c-0.095-1.924-0.934-3.694-2.362-4.987l8.013-8.848
						c7.826,7.087,8.427,19.219,1.339,27.045C530.552,151.302,526.89,153.281,523.021,154.063z"/>
					<path style="fill:#D2DAF1;" d="M402.726,57.306c0,3.846-3.117,6.963-6.962,6.963c-3.845,0-6.963-3.117-6.963-6.963
						s3.118-6.963,6.963-6.963C399.609,50.343,402.726,53.46,402.726,57.306z"/>
					<path style="fill:#E8ACB6;" d="M684.43,275.075c0,2.378-1.928,4.306-4.306,4.306c-2.377,0-4.305-1.928-4.305-4.306
						c0-2.377,1.928-4.305,4.305-4.305C682.503,270.77,684.43,272.697,684.43,275.075z"/>
					<path style="fill:#D9E84F;" d="M456.936,97.425c0,2.378-1.928,4.306-4.306,4.306c-2.377,0-4.305-1.928-4.305-4.306
						c0-2.378,1.928-4.305,4.305-4.305C455.008,93.12,456.936,95.048,456.936,97.425z"/>
					<path style="fill:#A2ACE1;" d="M668.095,179.229c0,2.378-1.927,4.305-4.306,4.305c-2.378,0-4.305-1.927-4.305-4.305
						s1.928-4.305,4.305-4.305C666.168,174.923,668.095,176.851,668.095,179.229z"/>
					<path style="fill:#FFB47A;" d="M531.91,83.988c0,6.166-4.998,11.164-11.163,11.164c-6.164,0-11.164-4.998-11.164-11.164
						c0-6.165,4.999-11.163,11.164-11.163C526.911,72.825,531.91,77.823,531.91,83.988z"/>
				</g>
				<g>
					<path style="fill:#D2DAF1;" d="M630.479,162.91l-6.603-5.011c0.091-0.49,0.166-0.982,0.215-1.469l7.744-2.959
						c-0.054-1.501-0.236-2.985-0.54-4.444l-8.226-1.038c-0.167-0.465-0.348-0.925-0.55-1.376l5.23-6.436
						c-0.791-1.26-1.685-2.458-2.68-3.586l-7.643,3.215c-0.375-0.32-0.768-0.624-1.171-0.916l1.309-8.182
						c-0.657-0.346-1.327-0.673-2.021-0.971c-0.693-0.298-1.392-0.555-2.097-0.79l-5.011,6.603c-0.49-0.089-0.98-0.165-1.47-0.217
						l-2.958-7.746c-1.501,0.056-2.987,0.241-4.444,0.543l-1.041,8.226c-0.466,0.166-0.923,0.352-1.373,0.552l-6.437-5.231
						c-1.26,0.79-2.461,1.685-3.583,2.68l3.212,7.644c-0.319,0.376-0.621,0.767-0.914,1.173l-8.183-1.312
						c-0.346,0.656-0.675,1.325-0.972,2.019c-0.297,0.696-0.553,1.395-0.789,2.1l6.603,5.011c-0.09,0.489-0.165,0.98-0.216,1.469
						l-7.745,2.959c0.056,1.503,0.24,2.986,0.54,4.444l8.229,1.036c0.165,0.467,0.35,0.926,0.55,1.376l-5.229,6.438
						c0.788,1.261,1.683,2.461,2.68,3.583l7.643-3.213c0.374,0.319,0.767,0.622,1.17,0.913l-1.311,8.184
						c0.658,0.345,1.328,0.674,2.02,0.971c0.695,0.297,1.396,0.554,2.101,0.788l5.01-6.602c0.489,0.089,0.978,0.166,1.468,0.215
						l2.959,7.747c1.501-0.058,2.985-0.238,4.443-0.54l1.04-8.228c0.464-0.17,0.923-0.353,1.373-0.552l6.437,5.229
						c1.261-0.789,2.461-1.682,3.585-2.679l-3.213-7.641c0.315-0.376,0.62-0.77,0.912-1.174l8.182,1.309
						c0.348-0.652,0.677-1.324,0.973-2.018C629.987,164.316,630.244,163.613,630.479,162.91z M614.54,158.532
						c-2.256,5.275-8.365,7.727-13.644,5.471c-5.279-2.257-7.729-8.366-5.473-13.645c2.257-5.28,8.365-7.727,13.643-5.472
						C614.346,147.144,616.797,153.251,614.54,158.532z"/>
					<path style="fill:#D2DAF1;" d="M77.008,383.798l5.356-1.115c0.035-0.29,0.066-0.582,0.088-0.88
						c0.049-0.697,0.056-1.386,0.028-2.069l-5.244-1.539c-0.059-0.324-0.135-0.642-0.217-0.958l4.079-3.64
						c-0.385-0.911-0.841-1.787-1.369-2.615l-5.318,1.291c-0.212-0.248-0.434-0.486-0.664-0.717l1.714-5.195
						c-0.783-0.593-1.615-1.125-2.494-1.581l-3.959,3.775c-0.306-0.107-0.619-0.204-0.935-0.289l-1.113-5.358
						c-0.291-0.034-0.585-0.064-0.881-0.085c-0.698-0.053-1.387-0.058-2.069-0.031l-1.539,5.244
						c-0.323,0.059-0.642,0.133-0.956,0.217l-3.641-4.081c-0.911,0.387-1.786,0.844-2.616,1.37l1.291,5.318
						c-0.248,0.212-0.486,0.434-0.717,0.664l-5.195-1.714c-0.593,0.783-1.123,1.614-1.582,2.492l3.777,3.961
						c-0.109,0.306-0.205,0.618-0.29,0.934l-5.357,1.114c-0.036,0.29-0.065,0.585-0.087,0.88c-0.051,0.698-0.057,1.387-0.029,2.07
						l5.245,1.539c0.059,0.323,0.132,0.642,0.217,0.955l-4.081,3.642c0.386,0.911,0.842,1.787,1.371,2.614l5.317-1.291
						c0.212,0.248,0.435,0.486,0.664,0.717l-1.714,5.196c0.782,0.591,1.614,1.121,2.492,1.582l3.961-3.777
						c0.307,0.109,0.618,0.205,0.935,0.291l1.114,5.354c0.291,0.036,0.584,0.067,0.881,0.088c0.697,0.053,1.387,0.058,2.069,0.03
						l1.54-5.244c0.323-0.06,0.641-0.134,0.956-0.217l3.641,4.081c0.911-0.387,1.786-0.843,2.615-1.371L73,390.133
						c0.247-0.21,0.484-0.433,0.715-0.663l5.197,1.715c0.592-0.781,1.123-1.615,1.582-2.493l-3.778-3.96
						C76.825,384.426,76.922,384.115,77.008,383.798z M64.01,390.854c-5.721-0.421-10.015-5.397-9.591-11.121
						c0.421-5.717,5.402-10.012,11.118-9.591c5.724,0.422,10.018,5.401,9.597,11.12C74.709,386.983,69.73,391.278,64.01,390.854z"/>
					<path style="fill:#EEF2A2;" d="M307.407,133.602c-0.796-3.443-3.031-5.946-5.43-6.092c-1.28-0.076-3.664,0.471-5.259,4.906
						c-1.871,5.254-1.705,11.146-1.504,15.632c-0.716-0.86-1.42-1.828-2.156-2.831c-1.536-2.098-3.12-4.266-5.087-5.954
						c-1.439-4.345-5.492-14.181-13.538-18.354c-2.335-1.211-6.382-2.101-8.054,0.357c-0.022,0.033-0.04,0.068-0.066,0.108
						c-2.746,4.357,2.67,9.509,5.298,12.012c3.474,3.3,7.069,5.98,10.395,7.739c0.519,0.278,1.188,0.488,1.774,0.683
						c0.365,0.113,0.917,0.287,1.058,0.379c1.25,0.816,2.669,2.716,3.929,4.381c0.33,0.449,0.658,0.883,0.975,1.295
						c0.814,1.036,1.526,2.098,2.204,3.113c0.066,0.099,0.135,0.197,0.197,0.296c-4.917-2.318-12.245-4.011-16.624-3.095
						c-2.708,0.568-3.758,1.988-4.158,3.085c-0.448,1.197-0.383,2.416,0.179,3.618c1.744,3.721,8.076,6.297,10.719,7.238
						c6.181,2.198,12.053,2.903,17.948,2.158c4.436,6.855,7.534,14.606,10.244,22.148c-0.929-0.663-1.909-1.425-2.912-2.212
						c-4.256-3.329-9.547-7.477-16.374-7.957c-3.799-0.266-5.212,1.648-5.712,2.814c-1.107,2.561,0.004,6.19,2.647,8.636
						c5.523,5.129,17.702,9.013,25.227,8.181c2.328,6.687,3.524,14.176,4.625,21.495c-0.397-0.369-0.815-0.755-1.248-1.147
						c-4.519-4.179-10.153-9.369-17.725-11.185c-0.95-0.228-5.732-1.234-7.394,1.208c-0.02,0.03-0.038,0.068-0.064,0.105
						c-3.172,5.108,3.803,11.121,6.949,13.465c6.592,4.931,13.924,7.606,20.283,7.435c0.964,7.626,0.559,16.007-0.165,24.142
						c-2.887-5.04-7.559-12.639-15.09-13.612c-1.592-0.197-4.343,0.439-5.26,1.918c-3.231,5.356,3.59,11.806,6.672,14.334
						c2.198,1.793,4.21,3.224,6.155,4.61c2.057,1.457,4.001,2.846,5.929,4.498c-0.567,3.358-1.651,8.15-2.933,12.977
						c-0.082,0.301-0.213,0.623-0.343,0.949c-0.462,1.19-1.319,3.398,0.727,4.381l0.326,0.096c2.559,0.3,3.079-2.463,3.38-4.12
						c0.077-0.393,0.141-0.773,0.233-1.088c0.977-3.477,2.215-8.3,2.69-12.017c3.89-1.688,12.961-5.842,17.904-13.113
						c0.781-1.147,1.46-2.371,1.992-3.673c1.464-3.551,2.845-10.034-1.236-11.823c-5.616-2.46-10.013,4.516-11.891,7.493
						c-1.879,2.99-3.411,5.755-4.854,8.558c0.039-0.677,0.083-1.367,0.126-2.065c0.41-6.48,0.869-13.826,0.503-20.204
						c-0.023-0.485-0.136-1.059-0.242-1.606c-0.096-0.449-0.227-1.126-0.201-1.299c0.245-0.656,1.036-1.154,1.952-1.721
						c0.485-0.302,0.985-0.614,1.461-0.985c6.441-4.91,10.284-11.27,11.441-18.893c0.72-4.707-0.348-7.583-3.17-8.561
						c-5.102-1.756-7.468,4.181-8.883,7.73l-0.397,0.98c-1.416,3.421-2.558,6.53-3.531,9.665c-0.082-0.498-0.168-0.997-0.255-1.494
						c-1.108-6.48-2.258-13.165-4.361-19.249c6.241-5.426,11.349-17.971,8.802-26.792c-1.192-4.126-3.237-6.531-5.907-6.938
						c-1.595-0.242-3.002,0.157-4.163,1.185c-3.41,3.017-3.917,11.027-3.895,17.013c-3.193-7.363-7.159-15.216-11.275-22.259
						C305.384,151.298,309.05,140.686,307.407,133.602"/>
					<path style="fill:#D9E84F;" d="M622.325,245.656c1.514-3.193,4.234-5.16,6.607-4.789c1.267,0.2,3.479,1.245,4.088,5.917
						c0.704,5.533-0.718,11.254-1.875,15.594c0.883-0.688,1.78-1.483,2.711-2.305c1.95-1.721,3.961-3.5,6.245-4.728
						c2.334-3.937,8.398-12.677,17.149-15.033c2.542-0.684,6.685-0.688,7.792,2.071c0.015,0.037,0.024,0.075,0.042,0.12
						c1.75,4.844-4.642,8.717-7.744,10.602c-4.1,2.481-8.185,4.329-11.811,5.335c-0.565,0.16-1.264,0.223-1.879,0.289
						c-0.381,0.031-0.958,0.084-1.114,0.144c-1.395,0.53-3.188,2.082-4.775,3.439c-0.418,0.367-0.831,0.721-1.229,1.057
						c-1.018,0.838-1.94,1.722-2.819,2.569c-0.085,0.083-0.174,0.163-0.255,0.248c5.299-1.212,12.818-1.299,16.902,0.531
						c2.523,1.134,3.245,2.746,3.401,3.904c0.182,1.265-0.142,2.443-0.948,3.496c-2.501,3.262-9.237,4.425-12.02,4.778
						c-6.508,0.826-12.395,0.257-17.994-1.732c-5.798,5.749-10.483,12.657-14.745,19.445c1.049-0.448,2.17-0.982,3.319-1.538
						c4.87-2.342,10.925-5.263,17.696-4.271c3.767,0.552,4.739,2.724,4.977,3.97c0.533,2.738-1.328,6.046-4.434,7.871
						c-6.493,3.828-19.219,5.018-26.392,2.595c-3.704,6.033-6.474,13.095-9.117,20.007c0.468-0.275,0.958-0.563,1.465-0.853
						c5.307-3.115,11.922-6.98,19.707-7.134c0.977-0.02,5.864,0.02,6.964,2.761c0.014,0.033,0.024,0.075,0.04,0.117
						c2.005,5.669-6.094,10.051-9.669,11.667c-7.494,3.407-15.229,4.452-21.403,2.925c-2.574,7.242-3.971,15.517-5.004,23.619
						c3.898-4.307,10.088-10.73,17.652-10.069c1.597,0.147,4.147,1.357,4.728,2.999c2.011,5.923-6.032,10.764-9.583,12.575
						c-2.532,1.282-4.802,2.247-6.999,3.186c-2.32,0.983-4.517,1.925-6.754,3.125c-0.163,3.402-0.129,8.315,0.089,13.305
						c0.015,0.311,0.075,0.654,0.133,1.001c0.196,1.262,0.56,3.6-1.649,4.124l-0.338,0.024c-2.563-0.254-2.48-3.065-2.42-4.748
						c0.009-0.4,0.027-0.785,0.005-1.113c-0.212-3.605-0.389-8.581-0.058-12.315c-3.44-2.479-11.412-8.479-14.686-16.638
						c-0.517-1.289-0.919-2.629-1.16-4.016c-0.67-3.782-0.632-10.41,3.736-11.285c6.013-1.201,8.816,6.553,10.014,9.864
						c1.197,3.322,2.1,6.351,2.911,9.398c0.107-0.669,0.212-1.353,0.318-2.043c0.985-6.418,2.108-13.693,3.83-19.845
						c0.125-0.469,0.359-1.004,0.58-1.518c0.19-0.417,0.462-1.052,0.474-1.224c-0.099-0.694-0.765-1.35-1.538-2.1
						c-0.409-0.399-0.831-0.811-1.217-1.273c-5.242-6.174-7.635-13.209-7.135-20.904c0.304-4.751,1.962-7.333,4.928-7.684
						c5.359-0.624,6.4,5.682,7.023,9.453l0.179,1.042c0.651,3.645,1.102,6.927,1.382,10.197c0.188-0.469,0.378-0.939,0.569-1.406
						c2.469-6.092,5.022-12.377,8.378-17.871c-4.937-6.636-7.243-19.982-2.868-28.054c2.048-3.777,4.56-5.687,7.254-5.515
						c1.61,0.104,2.899,0.795,3.814,2.048c2.687,3.676,1.468,11.609,0.166,17.452c4.694-6.51,10.249-13.332,15.776-19.332
						C620.517,263.376,619.205,252.224,622.325,245.656"/>
					<path style="fill:#D9E84F;" d="M357.227,72.306c-0.006-3.534-1.627-6.473-3.932-7.151c-1.232-0.36-3.677-0.359-6.221,3.606
						c-2.999,4.703-4.155,10.484-4.962,14.901c-0.505-0.999-0.975-2.1-1.468-3.242c-1.028-2.389-2.087-4.855-3.628-6.94
						c-0.431-4.557-2.183-15.049-9.093-20.916c-2.006-1.703-5.752-3.475-7.93-1.452c-0.03,0.027-0.054,0.058-0.089,0.09
						c-3.65,3.634,0.478,9.866,2.478,12.893c2.649,3.994,5.554,7.408,8.403,9.866c0.443,0.386,1.048,0.741,1.577,1.063
						c0.331,0.191,0.829,0.484,0.946,0.606c1.035,1.075,1.995,3.243,2.85,5.148c0.221,0.511,0.443,1.007,0.66,1.48
						c0.562,1.192,1.019,2.385,1.453,3.527c0.042,0.11,0.087,0.222,0.125,0.333c-4.275-3.358-11.039-6.646-15.513-6.733
						c-2.766-0.051-4.106,1.098-4.741,2.079c-0.704,1.067-0.914,2.27-0.634,3.567c0.869,4.017,6.464,7.943,8.829,9.451
						c5.534,3.524,11.101,5.523,17.013,6.114c2.79,7.673,4.077,15.921,5.034,23.877c-0.759-0.853-1.543-1.815-2.346-2.807
						c-3.404-4.197-7.634-9.422-14.181-11.415c-3.642-1.108-5.448,0.441-6.195,1.465c-1.65,2.249-1.38,6.034,0.651,9.011
						c4.236,6.233,15.238,12.741,22.759,13.611c0.774,7.037,0.266,14.606-0.295,21.984c-0.306-0.448-0.626-0.917-0.961-1.397
						c-3.471-5.082-7.803-11.401-14.778-14.864c-0.875-0.434-5.311-2.484-7.475-0.475c-0.027,0.024-0.054,0.058-0.087,0.089
						c-4.233,4.269,1.221,11.689,3.764,14.677c5.323,6.281,11.871,10.526,18.107,11.78c-0.764,7.648-3.033,15.728-5.557,23.495
						c-1.686-5.558-4.542-14.009-11.665-16.641c-1.507-0.548-4.331-0.542-5.556,0.694c-4.346,4.499,0.861,12.309,3.3,15.462
						c1.741,2.239,3.382,4.083,4.969,5.869c1.679,1.88,3.262,3.669,4.773,5.709c-1.304,3.146-3.431,7.574-5.759,11.994
						c-0.147,0.275-0.347,0.56-0.547,0.849c-0.717,1.057-2.044,3.017-0.27,4.434l0.296,0.166c2.427,0.864,3.551-1.713,4.215-3.261
						c0.163-0.366,0.311-0.721,0.471-1.008c1.73-3.17,4.015-7.595,5.309-11.111c4.168-0.775,13.938-2.797,20.381-8.779
						c1.018-0.943,1.953-1.984,2.764-3.135c2.219-3.135,5.014-9.143,1.437-11.8c-4.924-3.653-10.77,2.164-13.266,4.645
						c-2.501,2.493-4.609,4.847-6.644,7.256c0.189-0.651,0.387-1.314,0.585-1.985c1.848-6.224,3.938-13.281,5.007-19.58
						c0.085-0.479,0.103-1.063,0.122-1.62c0.007-0.459,0.03-1.148,0.094-1.311c0.386-0.584,1.269-0.893,2.287-1.241
						c0.54-0.187,1.098-0.378,1.645-0.633c7.375-3.346,12.543-8.687,15.375-15.857c1.753-4.427,1.355-7.47-1.176-9.053
						c-4.58-2.853-8.213,2.406-10.386,5.55l-0.607,0.867c-2.145,3.018-3.954,5.793-5.602,8.63c0.03-0.503,0.059-1.009,0.085-1.513
						c0.368-6.564,0.742-13.336,0.052-19.738c7.296-3.893,15.079-14.979,14.568-24.145c-0.24-4.29-1.697-7.09-4.207-8.084
						c-1.501-0.592-2.96-0.518-4.322,0.225c-3.998,2.177-6.283,9.872-7.6,15.71c-1.466-7.891-3.577-16.431-6.015-24.216
						C351.298,89.102,357.244,79.578,357.227,72.306"/>
					<g>
						<g>
							<path style="fill:#FFB47A;" d="M221.574,141.505c-1.364-0.305-2.703-0.754-3.981-1.335l-0.977-0.443
								c-5.367-2.438-9.366-6.996-11.259-12.834c-1.859-5.729-1.457-12.021,1.13-17.715l10.856-23.899
								c4.672-10.285,15.476-16.091,25.69-13.804c1.364,0.305,2.704,0.754,3.982,1.335l0.975,0.443
								c10.974,4.985,15.518,18.69,10.13,30.549L247.265,127.7C242.592,137.986,231.787,143.792,221.574,141.505z M241.585,77.944
								c-7.167-1.604-14.823,2.633-18.204,10.077l-10.856,23.899c-1.901,4.184-2.206,8.775-0.86,12.926
								c1.311,4.044,4.044,7.185,7.695,8.843l0.976,0.443c0.863,0.392,1.768,0.695,2.686,0.901
								c7.168,1.605,14.824-2.632,18.205-10.076l10.856-23.899c3.874-8.531,0.809-18.296-6.835-21.77l-0.975-0.443
								C243.409,78.454,242.505,78.15,241.585,77.944z"/>
							<path style="fill-rule:evenodd;clip-rule:evenodd;fill:#FFE195;" d="M240.771,154.563c-0.82,1.805-3.025,2.569-4.925,1.706
								l-43.283-19.662c-1.9-0.863-2.776-3.026-1.956-4.832l18.682-41.128c0.821-1.806,3.025-2.569,4.925-1.706l43.284,19.661
								c1.901,0.863,2.776,3.026,1.956,4.833L240.771,154.563z"/>
							<path style="fill:#FFFFFF;" d="M200.561,123.96c-0.11-0.025-0.219-0.061-0.325-0.109c-0.835-0.379-1.203-1.362-0.825-2.195
								l10.565-23.257c0.378-0.833,1.361-1.202,2.195-0.824c0.834,0.379,1.202,1.363,0.824,2.195l-10.564,23.258
								C202.101,123.753,201.31,124.127,200.561,123.96z"/>
							<path style="fill:#FFFFFF;" d="M240.731,142.207c-0.11-0.024-0.219-0.061-0.326-0.109c-0.833-0.379-1.202-1.361-0.824-2.195
								l6.308-13.885c0.378-0.834,1.359-1.203,2.195-0.825c0.833,0.379,1.202,1.362,0.824,2.196l-6.308,13.885
								C242.271,142.001,241.48,142.375,240.731,142.207z"/>
							<path style="fill:#FFFFFF;" d="M202.338,137.103c-0.109-0.025-0.218-0.061-0.325-0.11l-3.668-1.665
								c-1.124-0.512-1.995-1.413-2.451-2.54c-0.468-1.155-0.446-2.408,0.061-3.525c0.379-0.832,1.361-1.203,2.196-0.824
								c0.833,0.379,1.202,1.362,0.824,2.196c-0.128,0.282-0.13,0.605-0.007,0.91c0.135,0.335,0.401,0.606,0.75,0.764l3.666,1.666
								c0.834,0.379,1.203,1.362,0.824,2.196C203.878,136.896,203.088,137.27,202.338,137.103z"/>
							<path style="fill:#FFFFFF;" d="M233.949,151.388c-0.318-0.071-0.634-0.176-0.943-0.316c-0.833-0.378-1.202-1.361-0.824-2.195
								c0.379-0.833,1.36-1.202,2.195-0.824c0.686,0.313,1.471,0.069,1.749-0.542c0.378-0.833,1.36-1.201,2.195-0.824
								c0.834,0.378,1.202,1.361,0.824,2.194C238.247,150.858,236.051,151.859,233.949,151.388z"/>
							<path style="fill-rule:evenodd;clip-rule:evenodd;fill:#FFB47A;" d="M234.502,120.129c1.771-3.902,0.046-8.501-3.855-10.272
								c-3.9-1.772-8.5-0.046-10.271,3.854c-1.118,2.46-0.842,5.196,0.49,7.327l-8.742,13.742l11.941,5.424l4.597-15.626
								C231.144,124.181,233.385,122.588,234.502,120.129z"/>
						</g>
						<path style="fill:#FFE195;" d="M120.191,214.076l-0.02,0.017l-1.801-2.161l-44.859,37.39l0.71,0.854
							c-4.838-4.506-12.373-5.141-17.896-1.268c0,0.001,0,0.001,0,0.001c-0.33,0.231-0.653,0.479-0.963,0.738
							c-2.921,2.439-4.719,5.87-5.06,9.661c-0.34,3.792,0.817,7.488,3.255,10.41c4.708,5.638,13.103,6.754,19.109,2.54
							c0.329-0.229,0.653-0.478,0.962-0.736c2.921-2.439,4.719-5.87,5.06-9.662c0.286-3.184-0.488-6.299-2.187-8.947l0.678,0.814
							l30.409-25.348l7.716,9.239l4.399-3.674l-7.712-9.234l5.667-4.723l7.707,9.23l4.4-3.673L120.191,214.076z M72.981,261.345
							c-0.204,2.268-1.278,4.318-3.024,5.776c-0.188,0.156-0.381,0.306-0.579,0.443c-3.589,2.518-8.605,1.85-11.419-1.522
							c-1.459-1.746-2.15-3.956-1.947-6.223c0.204-2.266,1.278-4.317,3.025-5.774c0.188-0.156,0.381-0.305,0.581-0.445
							c3.587-2.517,8.603-1.847,11.417,1.522C72.494,256.871,73.185,259.08,72.981,261.345z"/>
					</g>
				</g>
			</g>
		</g>
		<g>
			<path style="fill:#D2DAF1;" d="M133.455,175.251c-2.208,0.336-4.513-0.587-5.847-2.562c-1.845-2.731-1.125-6.441,1.606-8.286
				l30.345-20.49c2.732-1.845,6.442-1.124,8.286,1.607c1.845,2.732,1.125,6.441-1.607,8.286l-30.345,20.49
				C135.136,174.807,134.303,175.122,133.455,175.251z"/>
			<path style="fill:#D9E84F;" d="M162.572,101.418l-6.827-9.793c3.261-2.273,4.065-6.776,1.791-10.038
				c-1.101-1.58-2.752-2.636-4.647-2.974c-1.896-0.339-3.811,0.082-5.39,1.183l-6.827-9.792c4.196-2.925,9.279-4.041,14.314-3.142
				c5.035,0.898,9.418,3.704,12.343,7.899C173.366,83.422,171.232,95.38,162.572,101.418z"/>
			<path style="fill:#EEF2A2;" d="M659.733,402.511c-0.826-5.82,1.022-11.946,5.528-16.373l8.366,8.516
				c-2.836,2.785-2.876,7.36-0.091,10.196c1.349,1.373,3.154,2.14,5.08,2.157c1.925,0.017,3.742-0.717,5.116-2.067l8.365,8.516
				c-7.532,7.399-19.679,7.291-27.076-0.242C662.049,410.189,660.289,406.419,659.733,402.511z"/>
			<circle style="fill:#A2ACE1;" cx="89.177" cy="128.262" r="6.963"/>
			<path style="fill:#E8ACB6;" d="M288.905,68.294c0,2.378-1.928,4.306-4.306,4.306c-2.377,0-4.305-1.928-4.305-4.306
				c0-2.377,1.928-4.305,4.305-4.305C286.977,63.989,288.905,65.916,288.905,68.294z"/>
			<path style="fill:#E8ACB6;" d="M76.868,200.642c0,2.378-1.928,4.305-4.306,4.305c-2.377,0-4.305-1.927-4.305-4.305
				s1.928-4.305,4.305-4.305C74.94,196.336,76.868,198.264,76.868,200.642z"/>
		</g>
		<g>
			<g>
				<g>
					<g>
						<rect x="281.633" y="228.252" style="fill-rule:evenodd;clip-rule:evenodd;fill:#D2DAF1;" width="314.814" height="24.336"/>
						<polygon style="fill-rule:evenodd;clip-rule:evenodd;fill:#D2DAF1;" points="596.448,228.733 281.633,228.733 
							439.041,121.115 						"/>
						<polygon style="fill-rule:evenodd;clip-rule:evenodd;fill:#A2ACE1;" points="569.729,228.733 308.136,228.733 
							439.041,139.947 						"/>
					</g>
					<g>
						<g>
							<rect x="281.641" y="252.588" style="fill-rule:evenodd;clip-rule:evenodd;fill:#A2ACE1;" width="45.029" height="6.864"/>
							<rect x="285.553" y="259.452" style="fill-rule:evenodd;clip-rule:evenodd;fill:#A2ACE1;" width="37.205" height="13.111"/>
							<rect x="290.165" y="272.563" style="fill-rule:evenodd;clip-rule:evenodd;fill:#A2ACE1;" width="27.982" height="108.219"/>
						</g>
						<g>
							<rect x="348.612" y="252.588" style="fill-rule:evenodd;clip-rule:evenodd;fill:#A2ACE1;" width="45.03" height="6.864"/>
							<rect x="352.524" y="259.452" style="fill-rule:evenodd;clip-rule:evenodd;fill:#A2ACE1;" width="37.204" height="13.111"/>
							<rect x="357.135" y="272.563" style="fill-rule:evenodd;clip-rule:evenodd;fill:#A2ACE1;" width="27.983" height="108.219"/>
						</g>
						<g>
							<rect x="416.124" y="252.588" style="fill-rule:evenodd;clip-rule:evenodd;fill:#A2ACE1;" width="45.029" height="6.864"/>
							<rect x="420.036" y="259.452" style="fill-rule:evenodd;clip-rule:evenodd;fill:#A2ACE1;" width="37.205" height="13.111"/>
							<rect x="424.647" y="272.563" style="fill-rule:evenodd;clip-rule:evenodd;fill:#A2ACE1;" width="27.983" height="108.219"/>
						</g>
						<g>
							<rect x="483.839" y="252.588" style="fill-rule:evenodd;clip-rule:evenodd;fill:#A2ACE1;" width="45.03" height="6.864"/>
							<rect x="487.752" y="259.452" style="fill-rule:evenodd;clip-rule:evenodd;fill:#A2ACE1;" width="37.205" height="13.111"/>
							<rect x="492.363" y="272.563" style="fill-rule:evenodd;clip-rule:evenodd;fill:#A2ACE1;" width="27.982" height="108.219"/>
						</g>
						<g>
							<rect x="551.352" y="252.588" style="fill-rule:evenodd;clip-rule:evenodd;fill:#A2ACE1;" width="45.029" height="6.864"/>
							<rect x="555.265" y="259.452" style="fill-rule:evenodd;clip-rule:evenodd;fill:#A2ACE1;" width="37.205" height="13.111"/>
							<rect x="559.876" y="272.563" style="fill-rule:evenodd;clip-rule:evenodd;fill:#A2ACE1;" width="27.982" height="108.219"/>
						</g>
					</g>
				</g>
				<g>
					<rect x="281.633" y="380.782" style="fill-rule:evenodd;clip-rule:evenodd;fill:#AFBBE2;" width="314.814" height="24.336"/>
					<rect x="269.874" y="405.118" style="fill-rule:evenodd;clip-rule:evenodd;fill:#C1C9EA;" width="338.334" height="24.336"/>
					<rect x="257.17" y="429.454" style="fill-rule:evenodd;clip-rule:evenodd;fill:#D2DAF1;" width="363.742" height="24.336"/>
				</g>
			</g>
			<g>
				<g>
					<path style="fill-rule:evenodd;clip-rule:evenodd;fill:#E0BC75;" d="M251.823,281.235c0.173,9.043,6.979,15.215,12.126,21.173
						c6.958,8.051,13.367,17.596,14.247,30.809c-5.69-8.572-12.455-15.169-19.788-20.506c-7.377-5.368-15.712-8.292-24.659-10.622
						c-0.436-7.862-0.874-15.724,0.04-22.897C239.583,280.298,245.344,281.472,251.823,281.235z"/>
					<g>
						<g>
							<path style="fill-rule:evenodd;clip-rule:evenodd;fill:#E8ACB6;" d="M336.383,377.154c-0.174-1.024,0.555-1.144,0.956-1.592
								c2.94-10.191,6.646-21.444,10.026-31.513c1.044-3.11,2.043-6.357,4.138-8.753c7.963,2.064,14.849,5.206,22.441,7.64
								c4.478-26.234,14.581-46.356,24.668-67.642c2.401-5.064,5.149-10.167,7.481-15.597c2.232-5.198,4.414-10.622,6.844-16.235
								c2.166-5.002,4.49-10.601,7.162-15.915c2.905-5.779,6.475-12.233,12.892-13.847c2.943-0.74,6.4,0.432,8.275,1.75
								c3.512,2.469,5.809,7.17,5.571,13.529c-0.105,2.809-0.871,5.385-1.432,8.117c-0.552,2.686-0.932,5.571-1.273,8.275
								c-4.276,33.802-7.171,69.216-16.553,97.563c-4.887,14.767-10.442,27.154-20.213,36.925c-3.2,3.201-6.781,6.331-10.822,8.117
								c-10.043,4.438-22.952,2.005-32.468-0.478c-7.728-2.016-14.524-4.441-21.327-7.321
								C340.667,379.296,338.418,378.554,336.383,377.154z"/>
							<path style="fill:#D18C9B;" d="M403.89,373.955c-3.34,3.056-7.056,6.023-11.173,7.628
								c-10.228,3.987-23.018,0.983-32.414-1.92c-7.629-2.357-14.312-5.081-20.98-8.261c-0.219-0.105-0.441-0.208-0.665-0.311
								c-0.452,1.507-0.895,3.002-1.318,4.471c-0.401,0.448-1.13,0.568-0.956,1.592c2.036,1.399,4.284,2.142,6.367,3.023
								c6.803,2.88,13.6,5.305,21.327,7.321c9.516,2.483,22.426,4.915,32.468,0.478c4.041-1.786,7.621-4.916,10.822-8.117
								c9.77-9.771,15.326-22.158,20.213-36.925c5.878-17.76,9.211-38.296,11.93-59.472c-3.488,19.473-7.588,38.236-13.786,54.501
								C420.185,352.499,414.085,364.628,403.89,373.955z"/>
						</g>
						<g>
							<path style="fill-rule:evenodd;clip-rule:evenodd;fill:#E8ACB6;" d="M474.857,210.378c3.805,1.378,9.064,1.609,12.531,3.78
								c6.747,4.224,3.075,13.226-0.576,18.311c-1.511,2.108-3.278,4.594-6.734,4.305c-0.68,3.354-0.932,6.766-3.368,8.981
								c-6.671,6.063-17.285-0.65-17.285-0.65c-4.747,7.376-17.818,12.516-22.958,10.195c-10.432-4.712-23.842-10.61-19.105-21.992
								c9.546-22.93,24.501-32.025,26.726-40.708c0.717-2.792,1.439-5.412,4.139-5.82c5.991-0.902,6.815,13.204,5.748,16.77
								c8.269-2.501,17.033-6.986,24.375-10.599c4.259-2.099,9.238-5.065,12.807-3.402c3.157,3.988-1.197,8.973-4.884,12.368
								C482.581,205.313,478.26,208.62,474.857,210.378"/>
							<path style="fill-rule:evenodd;clip-rule:evenodd;fill:#D18C9B;" d="M453.974,203.55c8.898-2.848,18.242-7.427,26.434-11.537
								c4.115-2.063,8.759-5.77,11.199-1.806c-3.497-1.486-8.343,2.03-12.475,4.326c-7.472,4.148-15.911,9.471-23.683,13.525
								c2.902,7.145,2.383,12.554,0.692,17.373c0.139-1.189,0.307-5.293-0.503-8.767c-0.59-2.528-1.849-5.402-2.646-7.278
								C452.993,209.386,453.586,207.202,453.974,203.55"/>
							<path style="fill-rule:evenodd;clip-rule:evenodd;fill:#D18C9B;" d="M457.006,240.12
								c-7.863-6.468,6.104-10.523,12.356-11.259c-1.492-5.387-3.631-10.578-5.412-16.491c0.818,0.721,1.604,1.777,2.272,2.934
								c2.832-1.535,6.237-3.173,8.634-4.925c3.653,0.8,7.261,1.465,10.643,2.823c2.286,0.917,4.211,2.312,5.134,4.82
								c-5.859-4.837-14.518-4.268-23.78-2.397c1.123,3.651,4.087,13.012,4.087,13.012l5.236-0.565
								c1.456-2.564,2.797-5.182,4.623-7.553c-0.978,3.207-5.536,12.278,1.21,16.111c-0.472,0.228-0.944,0.408-1.855,0.383
								c-1.894,5.093-8.055,6.398-14.087,5.921c-2.747-0.215-5.927-0.814-7.091-2.407c5.487,1.016,15.694,2.391,20.388-3.516
								c-2.037-0.765-3.914-3.591-3.36-6.256c-2.702-0.137-10.504,0.73-15.094,2.835c-2.946,1.35-5.636,4.09-2.249,6.776
								c-3.555,2.579,3.297,6.135,3.292,6.134c-0.866-0.185-5.542-1.537-5.984-4.728C455.91,241.335,456.101,240.387,457.006,240.12
								"/>
						</g>
					</g>
					<g>
						<path style="fill:#7B8AC9;" d="M282.186,432.205c2.475-7.723,5.68-15.137,6.048-24.351c0.397-9.928-3.99-16.261-8.117-22.282
							c-4.169-6.079-5.318-12.618-6.492-21.521c18.177,6.545,45.22,12.088,63.872,18.158c5.187-17.678,11.301-34.43,17.507-51.089
							c-13.633-6.121-27.349-12.011-41.699-19.099c-39.089-19.308-41.742-22.537-78.995-20.913
							c-0.998,0.044-36.595-0.061-37.904,0.001c-9.386,0.437-51.727,9.672-67.974,23.045c-6.052,4.981-14.82,19.611-18.37,26.673
							c-3.64,7.239-6.714,14.993-10.027,22.441c17.551,7.649,51.408,24.192,51.408,24.192c1.884-5.171,3.806-10.305,5.888-15.279
							c1.508,14.134,1.696,28.72,3.024,42.973c1.193,12.809,2.167,25.46,4.117,37.378l113.005,1.294
							C277.478,453.827,280.03,438.932,282.186,432.205z"/>
						<path style="fill-rule:evenodd;clip-rule:evenodd;fill:#FFFFFF;" d="M194.942,291.482
							c-9.367,11.398-9.487,22.567-3.399,28.724c12.269,12.406,28.958,0,28.958,0s17.905,8.759,25.183-5.45
							c2.219-4.331,2.449-14.417-10.683-23.678l-15.052,22.966L194.942,291.482z"/>
					</g>
					<g>
						<path style="fill-rule:evenodd;clip-rule:evenodd;fill:#E0BC75;" d="M196.407,291.109c0.125-0.729,3.019-29.188,2.885-41.014
							c-0.033-0.102-0.216-0.16-0.183,0.059c-1.653,1.063-4.287,2.118-6.464,3.112c-2.233,1.019-4.483,2.066-6.645,3.172
							c-21.454,10.96-49.759,20.253-62.786,35.52c-2.457,2.88-4.702,6.183-6.328,9.75c-1.578,3.466-4.513,8.693-4.735,12.507
							c-0.18,3.086,1.675,10.753,4.787,14.751C130.312,305.202,171.207,297.576,196.407,291.109z"/>
						<path style="fill-rule:evenodd;clip-rule:evenodd;fill:#E8ACB6;" d="M235.852,279.33c-0.246,5.387-0.996,11.266-1.092,17.163
							c-0.05,3.127,0.273,6.001-0.183,8.767c-1.204,7.3-6.938,16.759-17.665,14.647c-8.268-1.629-16.606-10.321-20.268-21.363
							c-0.842-2.543-1.589-4.534-1.701-7.061c-0.065-1.475,1.306-27.069,2.26-37.874c-5.052-5.222-9.582-10.589-12.757-18.13
							c-3.153-7.489-3.893-15.911-2.817-22.981c1.931-12.699,10.923-25.738,25.618-31.203c6.296-2.341,12.678-2.975,18.493-2.765
							c10.913,0.389,20.338,4.456,27.132,13.263c3.481,4.509,5.713,10.384,8.203,17.179c2.427,6.618,4.308,13.619,5.695,20.023
							c2.813,12.981,3.7,23.913,1.581,34.72c-0.989,5.046-2.536,10.609-5.75,14.017C255.409,285.36,242.815,281.125,235.852,279.33z
							"/>
						<g>
							<path style="fill-rule:evenodd;clip-rule:evenodd;fill:#FFE195;" d="M268.813,199.827c-3.103,2.748-7.458,4.685-12.176,6.391
								c-1.512-2.511-3.079-4.947-5.017-6.794c0.712,2.915,1.067,4.865,1.722,7.904c-4.638,1.703-9.885,3.012-15.419,4.136
								c-1.156-4.331-2.656-8.124-4.458-11.448c0.021,4.276,0.062,8.562-0.423,12.508c-3.761,0.263-7.885,1.157-11.845,1.587
								c-1.191,0.129-3.023-0.055-3.837,0.439c-1.029,0.626-1.81,5.53-2.256,6.796c-2.326,6.644-3.967,13.159-7.87,18.11
								c-1.977-2.151-6.013-5.407-9.313-4.916c-6.403,0.953-8.833,9.416-0.306,18.227c-2.589,6.768-11.443,9.675-18.883,13.732
								c-15.168,8.268-37.3,13.893-50.135,23.501c-1.494,1.119-2.947,2.683-4.602,4.153c-3.297,2.93-5.667,5.341-7.829,9.19
								c-2.592,4.612-4.345,9.841-2.067,17.595c0.306,1.046,1.607,6.472,2.84,8.027c0.111,0.144-5.4-5.149-6.62-6.419
								c-4.706-4.894-10.27-10.876-11.494-19.379c-1.241-8.62,3.307-16.782,8.212-21.887c5.711-5.943,13.273-9.003,21.29-13.294
								c-9.691,1.659-19.026,4.371-25.254,8.636c-2.118,1.451-3.717,3.433-5.728,4.398c-0.352-0.563-1.438-0.971-1.159-1.718
								c6.655-10.131,18.573-15.712,31.611-20.069c7.094-2.374,12.575-5.05,17.292-9.08c8.916-7.617,11.893-19.128,14.499-30.936
								c3.933-17.806,9.677-33.512,31.604-39.978c4.425-1.301,10.329-2.268,14.638-1.402c6.111-3.273,14.178-5.354,20.928-5.925
								c13.787-1.172,24.044,4.526,32.028,12.553C262.849,188.554,266.847,193.487,268.813,199.827z"/>
							<path style="fill-rule:evenodd;clip-rule:evenodd;fill:#E0BC75;" d="M202.035,182.996
								c-11.802,7.502-18.427,16.404-22.95,28.242c-2.244,5.871-3.23,12.312-4.845,18.395c-1.591,6.012-3.84,12.004-7.357,16.773
								c-4.142,5.616-10.689,10.017-17.354,14.214c-10.126,6.375-20.265,12.304-28.337,19.754c-2.794,2.578-5,5.165-6.868,8.192
								c-3.161,5.121-5.114,11.662-5.822,18.411c-0.077,0.731,0.306,2.276-0.594,2.692c-0.933,0.277-0.811-0.99-0.891-1.384
								c-1.799-8.873-0.124-17.077,3.443-23.018c8.55-14.246,30.308-20.346,42.476-32.482c7.844-7.824,12.864-18.298,15.765-29.637
								c1.495-5.848,2.853-11.461,5.252-16.512c2.517-5.291,5.62-9.745,9.599-13.712c4.213-4.2,9.167-7.086,15.545-9.88
								C200.087,182.608,200.948,182.339,202.035,182.996z"/>
							<path style="fill-rule:evenodd;clip-rule:evenodd;fill:#E0BC75;" d="M216.851,183.325c0.431,0.485-0.436,0.805-0.586,0.915
								c-1.115,0.841-2.431,1.545-3.574,2.55c-9.53,8.378-14.366,20.344-18.693,32.442c-3.714,10.383-6.941,20.707-14.803,28.638
								c-1.855,1.871-4.025,3.693-6.504,5.354c-0.501,0.338-1.419,1.592-2.21,0.676c-0.251-0.712,0.924-1.36,1.548-1.913
								c4.712-4.152,7.945-9.032,10.52-14.899c2.88-6.562,3.977-13.898,6.042-21.019c1.98-6.832,5.261-13.105,9.7-18.661
								c4.285-5.366,9.724-10.944,17.019-13.946C215.78,183.268,216.209,182.825,216.851,183.325z"/>
						</g>
						<g>
							<polygon style="fill-rule:evenodd;clip-rule:evenodd;fill:#D18C9B;" points="235.852,279.33 235.257,286.206 
								224.149,272.531 							"/>
							<g>
								<path style="fill:#D18C9B;" d="M251.831,248.914c0.079-0.016,0.172-0.066,0.246-0.094c2.154-1.135,3.471-2.556,4.017-4.34
									c1.075-3.621-1.247-7.824-4.18-13.132c-1.876-3.38-3.982-7.213-5.551-11.511c-0.312-0.785-1.19-1.201-1.962-0.908
									c-0.787,0.291-1.212,1.171-0.913,1.958c1.664,4.52,3.842,8.462,5.76,11.938c2.492,4.495,4.64,8.384,3.933,10.77
									c-0.298,0.956-1.114,1.789-2.501,2.505c-0.743,0.401-1.027,1.309-0.655,2.061
									C250.37,248.835,251.134,249.14,251.831,248.914"/>
								<path style="fill:#D18C9B;" d="M254.196,266.447c5.795-1.509,5.222-10.103,4.765-10.809
									c-0.436-0.701-1.395-0.929-2.102-0.475c-7.544,4.789-11.68,0.82-11.87,0.653c-0.589-0.602-1.737-0.738-2.141-0.022
									C241.115,258.778,247.359,268.551,254.196,266.447"/>
								<path style="fill-rule:evenodd;clip-rule:evenodd;fill:#FFE292;" d="M263.94,213.352c0.075,1.233-3.716,2.438-8.463,2.708
									c-4.749,0.262-8.654-0.53-8.732-1.76c-0.058-1.246,3.716-2.475,8.474-2.723C259.961,211.311,263.872,212.092,263.94,213.352
									"/>
								<path style="fill-rule:evenodd;clip-rule:evenodd;fill:#6878BC;" d="M261.641,226.044c0.535,2.058-0.27,4.053-1.783,4.415
									c-1.504,0.393-3.16-0.985-3.676-3.042c-0.515-2.071,0.289-4.052,1.783-4.431
									C259.478,222.602,261.124,223.977,261.641,226.044"/>
								<path style="fill-rule:evenodd;clip-rule:evenodd;fill:#FFE292;" d="M238.549,215.832c0.558,1.146-2.558,3.8-6.96,5.926
									c-4.376,2.139-8.408,2.927-8.953,1.795c-0.559-1.161,2.556-3.819,6.948-5.957
									C233.992,215.461,237.999,214.679,238.549,215.832"/>
								<path style="fill-rule:evenodd;clip-rule:evenodd;fill:#6878BC;" d="M237.217,231.139c0.556,2.187-0.278,4.324-1.895,4.728
									c-1.607,0.398-3.36-1.076-3.924-3.27c-0.547-2.204,0.305-4.32,1.908-4.722C234.92,227.468,236.669,228.929,237.217,231.139"
									/>
							</g>
						</g>
					</g>
					<g>
						<path style="fill-rule:evenodd;clip-rule:evenodd;fill:#E8ACB6;" d="M257.009,435.193c-3.979-1.384-6.821-6.552-10.923-8.462
							c-3.605-1.68-12.951-2.397-21.164-3.431c-3.632-0.458-61.865-5.017-87.326-1.74c2.513-9.737,6.741-24.918,9.99-36.215
							l-43.07-20.126c0,0-4.079,11.413-5.117,14.959c-3.594,12.266-7.059,25.16-9.072,38.834c-1.342,9.112-2.457,21.347,0,29.126
							c2.598,8.227,8.557,12.533,17.348,14.643c8.908,2.138,19.793,1.843,30.081,1.432c10.275-0.411,20.067-1.542,28.807-3.183
							c7.368-1.384,15.019-3.234,22.395-5.003c30.766-1.087,35.307,3.508,40.24,5.349c2.617,0.975,13.256,5.517,14.292,0.222
							c0.652-3.325-2.086-4.184-3.957-5.652c-2.736-2.146-5.626-3.731-7.372-5.188c5.487,0.428,11.248,0.37,17.749,2.185
							c3.832,1.069,17.605,6.832,16.929-2.457c1.261,0.611,3.659,0.277,3.823-1.094
							C271.857,446.028,262.861,437.232,257.009,435.193z"/>
						<path style="fill-rule:evenodd;clip-rule:evenodd;fill:#D18C9B;" d="M138.051,421.658l-35.477,4.891
							C112.111,415.763,137.542,420.167,138.051,421.658"/>
						<g>
							<path style="fill-rule:evenodd;clip-rule:evenodd;fill:#D18C9B;" d="M269.811,445.771c0.853,1.153,1.619,2.736,0.643,3.962
								c-2.272,2.848-6.565-1.427-10.21-3.36c-2.371-1.256-5.2-2.469-7.373-3.277c-5.77-2.14-17.475-3.822-17.475-3.822
								c7.829-1.11,19.18,1.74,25.807,4.83C263.393,445.124,269.881,446.782,269.811,445.771"/>
							<path style="fill-rule:evenodd;clip-rule:evenodd;fill:#D18C9B;" d="M251.071,453.066c-3.538-1-13.018-2.228-18.786-2.501
								c0,0-7.504-2.434-12.562-2.731C230.326,446.472,245.116,448.938,251.071,453.066"/>
							<path style="fill-rule:evenodd;clip-rule:evenodd;fill:#D18C9B;" d="M233.527,430.007c6.461-0.145,13.214-0.303,18.149,1.232
								c0,0,3.204,2.886,6.728,4.538C251.804,433.823,242.403,430.597,233.527,430.007"/>
						</g>
					</g>
				</g>
				<g>
					<g>
						<path style="fill-rule:evenodd;clip-rule:evenodd;fill:#6878BC;" d="M457.899,226.531c0.696,1.792,0.74,3.224,0.758,5.393
							c4.129-2.032,9.746-2.563,12.506-3.313c0.081-0.551,0.065-1.551,0.263-2.081c0.448-1.201,1.455-1.759,2.228-2.547
							c0.809-0.822,1.467-1.614,1.91-2.864c1.478-4.17,0.067-10.809-0.796-15.279c-0.93-4.824-2.475-9.771-5.41-11.778
							c-3.689-2.522-8.851-1.104-10.982,1.592c-1.921,2.431-3.009,6.786-3.819,11.46c-0.738,4.256-2.047,10.286-0.796,14.006
							C454.612,223.649,456.998,224.213,457.899,226.531z"/>
						<path style="fill-rule:evenodd;clip-rule:evenodd;fill:#6878BC;" d="M587.93,262.182c-4.459-2.192-11.303,1.102-10.982,6.207
							c-23.102,0.439-38.928-7.882-54.273-15.597c-3.862-1.941-7.578-4.194-11.46-6.048c-8.839-4.221-17.817-8.091-28.501-10.351
							c0,0-1.608,0.79-2.559,0.619c-0.352,0.809-0.545,1.812-0.692,2.997c-0.636,5.137-4.693,7.114-4.693,7.114
							c8.279,0.76,15.642,2.564,22.282,4.873c9.472,3.294,18.447,7.222,27.056,11.141c4.259,1.938,8.947,3.548,13.688,5.411
							c7.069,2.778,14.518,4.671,22.919,5.729c9.441,1.191,23.548,1.731,28.489-3.819c0.635-0.714,1.775-1.603,1.75-3.662
							C590.929,264.681,589.419,262.914,587.93,262.182z"/>
						<path style="fill-rule:evenodd;clip-rule:evenodd;fill:#6878BC;" d="M457.006,240.12c-3.255-2.809-2.182-4.696-2.061-4.975
							c-19.886,2.074-33.78,10.149-48.294,17.646c-7.665,3.96-15.508,7.75-24.191,10.823c-8.642,3.058-18.513,5.248-30.081,4.775
							c0.261-7.958-13.04-9.643-13.847-1.432c-0.227,2.304,2.576,4.733,3.979,5.57c3.914,2.336,10.58,2.515,16.393,2.547
							c6.544,0.035,12.236-0.908,17.188-1.91c10.329-2.093,19.864-5.927,28.49-9.709c8.895-3.9,17.586-7.836,27.056-11.142
							c4.758-1.66,9.648-3.266,14.961-4.138c4.762-0.782,9.791-1.501,15.355-1.677C454.314,243.86,455.947,240.544,457.006,240.12z"
							/>
					</g>
					<g>
						<g>
							<path style="fill:#6878BC;" d="M537.47,414.497c-0.299,0-0.603-0.046-0.903-0.141c-1.572-0.499-2.441-2.176-1.943-3.747
								l45.835-144.538c0.498-1.571,2.174-2.441,3.747-1.942c1.572,0.498,2.441,2.176,1.943,3.747l-45.835,144.539
								C539.91,413.685,538.735,414.497,537.47,414.497z"/>
							<g>
								<g>
									<path style="fill-rule:evenodd;clip-rule:evenodd;fill:#D2DAF1;" d="M601.141,426.274c2.754,0,5.493,0.046,8.23,0.114
										l48.821-73.603l-68.767-45.614l-63.97,96.442l34.164,22.661H601.141z"/>
									<g>
										<polygon style="fill-rule:evenodd;clip-rule:evenodd;fill:#E8ACB6;" points="556.655,421.501 565.177,418.478 
											573.585,422.609 573.981,398.27 557.05,397.163 										"/>
										<polygon style="fill-rule:evenodd;clip-rule:evenodd;fill:#E8ACB6;" points="545.304,413.972 544.775,404.946 
											537.699,398.806 559.97,388.977 567.572,404.143 										"/>
										<path style="fill-rule:evenodd;clip-rule:evenodd;fill:#FFFFFF;" d="M552.925,390.445
											c-3.919,5.91-2.035,14.059,4.208,18.201c6.246,4.142,14.486,2.709,18.405-3.2c3.919-5.907,2.035-14.057-4.211-18.199
											C565.084,383.105,556.844,384.538,552.925,390.445z"/>
									</g>
								</g>
								<g>
									<g>
										<path style="fill:#FFFFFF;" d="M645.383,358.68l-56.408-37.415c-0.741-0.492-0.965-1.46-0.5-2.16
											c0.464-0.7,1.443-0.87,2.185-0.378l56.407,37.415c0.741,0.492,0.965,1.458,0.5,2.159
											C647.102,359.002,646.125,359.171,645.383,358.68z"/>
										<path style="fill:#FFFFFF;" d="M639.059,368.214L582.651,330.8c-0.741-0.491-0.965-1.458-0.5-2.159
											c0.466-0.702,1.443-0.87,2.185-0.379l56.407,37.415c0.743,0.492,0.967,1.457,0.501,2.159
											C640.777,368.537,639.8,368.707,639.059,368.214z"/>
										<path style="fill:#FFFFFF;" d="M632.343,378.34l-56.408-37.415c-0.74-0.491-0.967-1.457-0.5-2.16
											c0.465-0.701,1.443-0.871,2.184-0.379l56.407,37.415c0.742,0.492,0.965,1.46,0.501,2.16
											C634.061,378.664,633.084,378.832,632.343,378.34z"/>
									</g>
									<g>
										<path style="fill:#FFFFFF;" d="M632.25,378.479l-56.408-37.415c-0.74-0.491-0.966-1.456-0.5-2.16
											c0.465-0.7,1.444-0.869,2.184-0.378l56.408,37.414c0.742,0.492,0.964,1.46,0.5,2.16
											C633.967,378.804,632.993,378.972,632.25,378.479z"/>
										<path style="fill:#FFFFFF;" d="M625.925,388.015l-56.407-37.416c-0.741-0.491-0.968-1.456-0.501-2.16
											c0.464-0.7,1.443-0.869,2.184-0.378l56.408,37.415c0.742,0.492,0.965,1.459,0.5,2.16
											C627.644,388.339,626.667,388.507,625.925,388.015z"/>
										<path style="fill:#FFFFFF;" d="M619.208,398.143l-56.407-37.416c-0.741-0.491-0.965-1.458-0.501-2.16
											c0.466-0.703,1.444-0.87,2.185-0.378l56.408,37.414c0.741,0.492,0.966,1.457,0.5,2.16
											C620.928,398.463,619.95,398.634,619.208,398.143z"/>
									</g>
									<g>
										<path style="fill:#FFFFFF;" d="M625.73,388.31l-56.408-37.415c-0.74-0.491-0.966-1.457-0.5-2.16
											c0.464-0.7,1.443-0.87,2.184-0.378l56.408,37.414c0.741,0.492,0.964,1.458,0.499,2.16
											C627.447,388.633,626.471,388.801,625.73,388.31z"/>
										<path style="fill:#FFFFFF;" d="M619.405,397.844l-56.407-37.414c-0.741-0.491-0.967-1.457-0.5-2.16
											c0.464-0.701,1.443-0.87,2.184-0.378l56.407,37.414c0.741,0.492,0.965,1.458,0.501,2.16
											C621.124,398.169,620.147,398.336,619.405,397.844z"/>
										<path style="fill:#FFFFFF;" d="M612.688,407.972l-56.408-37.415c-0.74-0.491-0.965-1.458-0.5-2.159
											c0.465-0.704,1.443-0.871,2.184-0.379l56.407,37.415c0.743,0.493,0.968,1.457,0.501,2.16
											C614.407,408.294,613.43,408.464,612.688,407.972z"/>
									</g>
								</g>
							</g>
							<path style="fill-rule:evenodd;clip-rule:evenodd;fill:#6878BC;" d="M530.778,411.512
								c0.531,4.032,1.148,19.492,50.338,19.492c52.375,0,54.157-15.266,54.713-19.492H530.778z"/>
							<path style="fill:#6878BC;" d="M629.138,414.497c-1.266,0-2.44-0.813-2.844-2.083l-45.834-144.539
								c-0.498-1.571,0.372-3.249,1.942-3.747c1.574-0.5,3.249,0.372,3.747,1.942l45.834,144.538
								c0.498,1.571-0.371,3.249-1.943,3.747C629.74,414.452,629.436,414.497,629.138,414.497z"/>
						</g>
						<g>
							<path style="fill:#6878BC;" d="M298.954,414.497c-0.298,0-0.602-0.046-0.902-0.141c-1.571-0.499-2.44-2.176-1.943-3.747
								l45.835-144.538c0.499-1.571,2.174-2.441,3.747-1.942c1.571,0.498,2.44,2.176,1.943,3.747l-45.835,144.539
								C301.395,413.685,300.22,414.497,298.954,414.497z"/>
							<path style="fill:#6878BC;" d="M396.931,373.247l7.71-1.605c0.051-0.418,0.094-0.838,0.127-1.267
								c0.071-1.003,0.081-1.996,0.041-2.978l-7.548-2.215c-0.086-0.467-0.194-0.924-0.313-1.379l5.871-5.239
								c-0.555-1.312-1.211-2.572-1.97-3.764l-7.654,1.859c-0.305-0.358-0.625-0.7-0.956-1.033l2.468-7.479
								c-1.126-0.854-2.324-1.619-3.59-2.276l-5.699,5.434c-0.441-0.154-0.892-0.294-1.346-0.416l-1.602-7.712
								c-0.419-0.049-0.841-0.092-1.268-0.123c-1.004-0.076-1.997-0.083-2.979-0.044l-2.216,7.549
								c-0.464,0.085-0.924,0.192-1.375,0.313l-5.242-5.874c-1.311,0.556-2.571,1.215-3.765,1.972l1.859,7.656
								c-0.358,0.305-0.7,0.625-1.032,0.955l-7.479-2.467c-0.853,1.127-1.617,2.323-2.277,3.587l5.436,5.702
								c-0.156,0.441-0.295,0.889-0.418,1.344l-7.711,1.604c-0.051,0.418-0.094,0.842-0.125,1.267
								c-0.074,1.005-0.083,1.996-0.041,2.98l7.55,2.216c0.085,0.465,0.19,0.924,0.313,1.375l-5.875,5.242
								c0.556,1.311,1.212,2.572,1.973,3.763l7.654-1.858c0.305,0.357,0.626,0.699,0.956,1.032l-2.467,7.479
								c1.126,0.851,2.324,1.614,3.587,2.277l5.701-5.437c0.441,0.157,0.889,0.296,1.346,0.419l1.603,7.707
								c0.419,0.052,0.841,0.096,1.269,0.126c1.003,0.077,1.996,0.083,2.979,0.043l2.216-7.548c0.465-0.087,0.922-0.193,1.376-0.313
								l5.241,5.874c1.312-0.557,2.571-1.214,3.765-1.974l-1.858-7.657c0.356-0.303,0.697-0.623,1.03-0.954l7.481,2.469
								c0.852-1.125,1.616-2.325,2.277-3.588l-5.439-5.701C396.667,374.15,396.808,373.702,396.931,373.247z M378.221,383.402
								c-8.235-0.606-14.416-7.769-13.807-16.009c0.606-8.23,7.775-14.413,16.004-13.805c8.239,0.608,14.42,7.775,13.814,16.007
								C393.622,377.83,386.455,384.013,378.221,383.402z"/>
							<g>
								<path style="fill-rule:evenodd;clip-rule:evenodd;fill:#FFE195;" d="M346.932,330.184
									c-22.704-14.071-52.516-7.073-66.586,15.63c-14.071,22.704-7.073,52.515,15.63,66.586
									c16.788,10.405,37.456,9.278,52.779-1.188l18.67,11.571c4.412,2.734,10.206,1.375,12.94-3.037l10.695-17.257
									c2.735-4.412,1.374-10.204-3.038-12.939l-18.67-11.572C371.907,359.598,363.719,340.589,346.932,330.184z"/>
								<path style="fill:#6878BC;" d="M333.132,384.877c0.194-0.054,0.403-0.017,0.565,0.101c2.22,1.606,4.397,3.131,6.703,4.747
									c2.934,2.054,5.968,4.18,9.186,6.547c2.412,1.773,4.864,3.535,7.236,5.239c0.962,0.69,1.918,1.382,2.877,2.072
									c0.056-0.082,0.104-0.167,0.173-0.247c0.464-0.542,0.906-1.097,1.335-1.663c-0.119-0.088-0.24-0.178-0.355-0.263
									l-3.272-2.445c-7.232-5.419-14.061-10.537-21.094-15.321c-0.159-0.108-0.264-0.281-0.286-0.474
									c-0.022-0.192,0.043-0.384,0.173-0.526c0.536-0.577,0.913-1.332,1.28-2.117c0.233-0.499,0.476-1.014,0.792-1.515
									c0.004-0.009,0.011-0.018,0.016-0.025c0.201-0.29,0.597-0.373,0.897-0.184c6.763,4.252,16.519,10.229,26.633,15.388
									c0.459-0.794,0.917-1.589,1.377-2.382c-0.408-0.221-0.801-0.43-1.152-0.606c-9.481-4.749-18.827-10.478-27.513-15.961
									c-0.166-0.104-0.277-0.278-0.303-0.471c-1.078-7.953-7.978-15.681-13.923-18.914c-1.032-0.562-4.174-2.272-6.423-2.083
									c-1.153,0.096-1.973,0.484-2.439,1.156c-1.024,1.476-0.276,4.084,0.919,6.015c2.194,3.545,5.691,6.245,9.085,8.707
									l0.247,0.179c3.479,2.525,6.766,4.909,9.695,6.71c0.23,0.142,0.352,0.411,0.306,0.679c-0.167,0.951-0.431,2.061-1.13,3.069
									c-0.266,0.382-0.585,0.735-0.948,1.047c-0.222,0.19-0.541,0.213-0.787,0.057c-0.544-0.343-1.086-0.691-1.63-1.038
									c-5.496-3.51-11.179-7.141-17.579-8.317c-2.533-0.465-6.099-0.872-7.825,0.96c-0.793,0.842-1.058,1.775-0.805,2.86
									c0.613,2.613,4.022,5.316,6.163,6.495C317.519,385.759,326.281,386.775,333.132,384.877z M330.779,370.053
									c-4.485-2.972-9.122-6.046-12.764-12.096l-0.2-0.383c-0.146-0.286-0.067-0.635,0.188-0.831
									c0.274-0.208,0.536-0.204,0.678-0.187c0.101-0.02,0.207-0.015,0.309,0.013c6.749,1.896,11.868,6.671,15.65,14.6
									c0.104,0.218,0.08,0.471-0.053,0.664c-0.033,0.047-0.071,0.09-0.116,0.127c-0.23,0.196-0.563,0.211-0.809,0.038
									C332.706,371.331,331.743,370.691,330.779,370.053z M307.954,375.653c-0.102-0.182-0.11-0.403-0.024-0.594
									c0.085-0.189,0.258-0.33,0.463-0.374c3.909-0.853,7.815,0.516,10.782,1.806c3.138,1.363,6.169,3.217,9.258,5.158
									c0.061,0.014,0.121,0.036,0.176,0.067c0.17,0.096,0.3,0.26,0.336,0.454c0.042,0.224,0.004,0.422-0.111,0.586
									c-0.067,0.099-0.258,0.312-0.619,0.298c-0.033,0.007-0.065,0.013-0.099,0.016c-4.865,0.383-9.691-0.473-13.958-2.476
									l-0.552-0.255C311.585,379.407,309.495,378.444,307.954,375.653z"/>
								<g>
									
										<rect x="359.654" y="405.833" transform="matrix(0.5268 -0.85 0.85 0.5268 -166.5854 515.0902)" style="fill:#FFFFFF;" width="39.334" height="2.653"/>
									
										<rect x="352.196" y="401.21" transform="matrix(0.5268 -0.85 0.85 0.5268 -166.1843 506.5702)" style="fill:#FFFFFF;" width="39.334" height="2.653"/>
									
										<rect x="344.736" y="396.588" transform="matrix(0.5267 -0.85 0.85 0.5267 -165.778 498.0783)" style="fill:#FFFFFF;" width="39.335" height="2.653"/>
								</g>
								<g>
									<path style="fill:#FFFFFF;" d="M338.243,343.319c-0.835,0-1.679-0.225-2.441-0.697c-1.996-1.237-4.131-2.222-6.345-2.927
										c-2.443-0.778-3.794-3.389-3.016-5.831c0.778-2.443,3.389-3.793,5.831-3.016c2.943,0.937,5.776,2.243,8.422,3.883
										c2.179,1.35,2.85,4.212,1.5,6.391C341.314,342.539,339.796,343.319,338.243,343.319z"/>
									<path style="fill:#FFFFFF;" d="M292.912,353.96c-0.834,0-1.679-0.226-2.441-0.697c-2.179-1.35-2.85-4.212-1.5-6.391
										c6.77-10.922,18.49-17.567,31.353-17.775c2.554-0.052,4.675,2.002,4.716,4.567c0.042,2.563-2.003,4.674-4.566,4.716
										c-9.688,0.157-18.515,5.16-23.612,13.384C295.983,353.18,294.465,353.96,292.912,353.96z"/>
								</g>
							</g>
							<path style="fill:#A2ACE1;" d="M305.071,418.704c0.053-0.738,0.136-1.478,0.284-2.223
								c1.916-9.612,11.262-15.849,20.872-13.933c7.159,1.428,12.44,6.978,13.881,13.686c2.676-0.15,5.352-0.293,8.029-0.426
								l-4.092-0.878c-0.215-0.916-0.488-1.812-0.818-2.684l3.284-3.397c-0.894-1.907-2.013-3.701-3.33-5.341l-4.499,1.452
								c-0.641-0.682-1.321-1.322-2.047-1.92l1.144-4.584c-1.702-1.191-3.563-2.188-5.556-2.956l-3.168,3.505
								c-0.658-0.197-1.331-0.367-2.018-0.504c-0.238-0.047-0.475-0.084-0.711-0.124l-1.304-4.547
								c-2.134-0.188-4.242-0.115-6.288,0.203l-0.995,4.631c-0.913,0.215-1.81,0.487-2.682,0.817l-3.399-3.283
								c-1.908,0.893-3.702,2.012-5.341,3.33l1.454,4.501c-0.681,0.638-1.323,1.319-1.919,2.043l-4.586-1.142
								c-1.19,1.701-2.186,3.56-2.957,5.557l3.506,3.167c-0.197,0.66-0.368,1.33-0.505,2.018c-0.048,0.238-0.085,0.474-0.124,0.712
								l-4.548,1.303c-0.052,0.593-0.078,1.183-0.09,1.772C299.387,419.199,302.228,418.946,305.071,418.704z"/>
							<path style="fill-rule:evenodd;clip-rule:evenodd;fill:#6878BC;" d="M292.263,411.512
								c0.531,4.032,1.148,19.492,50.338,19.492c52.373,0,54.156-15.266,54.712-19.492H292.263z"/>
							<path style="fill:#6878BC;" d="M390.622,414.497c-1.266,0-2.441-0.813-2.844-2.083l-45.835-144.539
								c-0.498-1.571,0.372-3.249,1.943-3.747c1.573-0.5,3.248,0.372,3.746,1.942l45.835,144.538
								c0.498,1.571-0.372,3.249-1.943,3.747C391.225,414.452,390.921,414.497,390.622,414.497z"/>
						</g>
					</g>
				</g>
			</g>
		</g>
	</g>
</g>
</svg>
